<?xml version="1.0" standalone="no"?>
<!DOCTYPE svg PUBLIC "-//W3C//DTD SVG 20010904//EN"
 "http://www.w3.org/TR/2001/REC-SVG-20010904/DTD/svg10.dtd">
<svg version="1.0" xmlns="http://www.w3.org/2000/svg"
 width="260.000000pt" height="260.000000pt" viewBox="0 0 260.000000 260.000000"
 preserveAspectRatio="xMidYMid meet">
<metadata>
Created by potrace 1.11, written by Peter Selinger 2001-2013
</metadata>
<g transform="translate(0.000000,260.000000) scale(0.100000,-0.100000)"
fill="#000000" stroke="none">
<path d="M1760 1850 l0 -650 370 0 370 0 0 650 0 650 -370 0 -370 0 0 -650z
m640 0 l0 -550 -270 0 -270 0 0 550 0 550 270 0 270 0 0 -550z"/>
<path d="M930 1350 l0 -650 370 0 370 0 0 650 0 650 -370 0 -370 0 0 -650z"/>
<path d="M100 750 l0 -650 370 0 370 0 0 650 0 650 -370 0 -370 0 0 -650z
m640 0 l0 -550 -270 0 -270 0 0 550 0 550 270 0 270 0 0 -550z"/>
</g>
</svg>
